Coordinates
version=1
nRows=9
nColumns=36
inDegrees=yes

Units are S.I. units (second, meters, Newtons, ...)
If the header above contains a line with 'inDegrees', this indicates whether rotational values are in degrees (yes) or radians (no).

endheader
time	pelvis_tilt	pelvis_list	pelvis_rotation	pelvis_tx	pelvis_ty	pelvis_tz	hip_flexion_r	hip_adduction_r	hip_rotation_r	knee_angle_r	knee_angle_r_beta	ankle_angle_r	subtalar_angle_r	mtp_angle_r	hip_flexion_l	hip_adduction_l	hip_rotation_l	knee_angle_l	knee_angle_l_beta	ankle_angle_l	subtalar_angle_l	mtp_angle_l	lumbar_extension	lumbar_bending	lumbar_rotation	arm_flex_r	arm_add_r	arm_rot_r	elbow_flex_r	pro_sup_r	arm_flex_l	arm_add_l	arm_rot_l	elbow_flex_l	pro_sup_l
      2.10000000	    -25.98234001	      1.47950300	     -3.41316315	      0.56547758	      0.76828441	      0.04766799	     64.01082929	    -17.85906325	     -9.97393627	     65.69714667	      1.14663152	     30.25436590	     -4.83761108	     -7.49999987	     63.93819186	    -17.11584322	     -7.09497464	     63.07123508	      1.10080072	     28.42320885	     -9.03970574	     -7.49999987	     -9.77288524	     -0.16144904	      3.89941962	     64.73431210	     -4.38028862	     63.52549670	    129.70393783	     98.15952686	     68.88432174	     -4.03302317	     73.72635857	    128.93513796	     96.70523473
      2.11666670	    -26.68422369	      1.23794926	     -3.30844550	      0.56495418	      0.75498052	      0.04690523	     65.86496579	    -18.03084777	     -9.84615525	     67.67254682	      1.18110876	     31.13731594	     -4.75131857	     -7.49999987	     66.09881005	    -17.44588611	     -6.45086809	     65.16345237	      1.13731680	     29.18776872	     -8.82315716	     -7.49999987	    -10.32052024	     -0.01905165	      4.33726968	     64.54609213	     -4.96894720	     64.58466661	    129.93808745	     96.90668879	     69.09175606	     -2.98039113	     72.66483225	    127.04266491	     95.36111651
      2.13333330	    -27.25560607	      1.07632605	     -3.20066796	      0.56488130	      0.73692594	      0.04682194	     67.96204279	    -18.34775956	     -9.53510374	     70.21908428	      1.22555422	     32.28375350	     -4.73086146	     -7.49999987	     68.34645770	    -17.76313493	     -5.79595354	     67.66602643	      1.18099495	     30.09712260	     -8.76733729	     -7.49999987	    -10.99023873	      0.01665009	      3.99420842	     64.78393818	     -4.33684351	     65.26869131	    131.43682696	     95.57184544	     70.14653063	     -2.46483794	     72.50019879	    127.24758613	     94.01151370
      2.15000000	    -28.17878382	      0.81596752	     -3.07337967	      0.56444770	      0.72912329	      0.04656806	     70.21311206	    -18.55337320	     -9.33777300	     72.50945000	      1.26552864	     33.26713210	     -4.82200789	     -7.49999987	     70.94485735	    -18.12220464	     -5.08443841	     70.08626290	      1.22323605	     31.12648819	     -8.38171738	     -7.49999987	    -10.99433803	      0.30352849	      4.33406629	     64.83815137	     -5.47605033	     66.79532344	    131.17180055	     96.00033027	     70.44499167	     -1.76689429	     73.73126226	    126.28643754	     94.50872566
      2.16666670	    -28.88471798	      0.55581159	     -2.93059053	      0.55653667	      0.72448974	      0.04843905	     72.09986744	    -18.67734984	     -9.12853356	     74.51723036	      1.30057102	     34.02297550	     -4.87438010	     -7.49999987	     73.26150859	    -18.45440535	     -4.37258852	     72.11457798	      1.25863682	     31.78827597	     -8.10899707	     -7.49999987	    -12.09644105	      0.52920699	      4.91620288	     65.54785369	     -6.45902140	     67.06684579	    130.99473368	     96.43999425	     71.10522079	     -1.34787198	     73.96776338	    125.04907225	     95.01760540
      2.18333330	    -29.64463617	      0.29800925	     -2.78812716	      0.55622670	      0.71710706	      0.04759543	     73.93903778	    -18.79145272	     -8.92024144	     76.29167182	      1.33154087	     34.68495685	     -5.00291037	     -7.49999987	     75.61541226	    -18.67685243	     -3.60906771	     74.10598269	      1.29339339	     32.24057608	     -7.98845523	     -7.49999987	    -12.91871546	      0.74775039	      5.38023912	     65.05412254	     -7.30962202	     69.01303426	    130.90282561	     96.81587528	     71.15528620	     -1.40101530	     77.22350042	    124.82672527	     95.83251833
      2.20000000	    -30.12965198	      0.20145643	     -2.63627364	      0.54957625	      0.71273841	      0.04409565	     75.43759671	    -18.97767799	     -8.55329305	     77.77640986	      1.35745443	     35.12934257	     -5.15961994	     -7.49999987	     77.42351458	    -18.67306052	     -3.01979413	     75.69767392	      1.32117365	     32.41874525	     -8.09884802	     -7.49999987	    -14.45095908	      0.97871470	      5.53019313	     66.65284072	     -8.56847726	     67.99323844	    129.53643422	     96.90775817	     72.51222540	     -0.67696606	     76.58320491	    124.28730691	     96.00523789
      2.21666670	    -30.73582790	      0.01095657	     -2.62938005	      0.54994417	      0.69658791	      0.04374481	     77.30767983	    -19.13144777	     -8.25715783	     79.68265489	      1.39072468	     35.73238921	     -5.14141469	     -7.49999987	     79.65645012	    -18.87219430	     -2.27558071	     77.73530615	      1.35673704	     32.71441244	     -8.09647672	     -7.49999987	    -15.40828513	      1.31322209	      5.70970484	     67.37696317	     -8.54434292	     67.60575243	    130.63725110	     97.63894271	     73.71702867	     -0.42625589	     76.32358443	    124.17215071	     96.79356755
      2.23333330	    -31.72637356	     -0.18332576	     -2.65453104	      0.54262728	      0.67922865	      0.03961219	     79.90708139	    -19.25311994	     -7.82696591	     81.89438798	      1.42932671	     36.31128623	     -5.37860990	     -7.49999987	     82.63024672	    -18.97890628	     -1.35413736	     80.04792156	      1.39709979	     32.98723887	     -8.41044280	     -7.49999987	    -15.34766493	      1.46963417	      6.28490877	     67.76680966	     -9.86941015	     64.96367227	    131.59610078	     98.48341745	     75.74984813	      1.20438035	     76.21674257	    123.80182263	     98.47294472
